<?xml version="1.0" standalone="no"?>
<!DOCTYPE svg PUBLIC "-//W3C//DTD SVG 20010904//EN"
 "http://www.w3.org/TR/2001/REC-SVG-20010904/DTD/svg10.dtd">
<svg version="1.0" xmlns="http://www.w3.org/2000/svg"
 width="2000.000000pt" height="2000.000000pt" viewBox="0 0 2000.000000 2000.000000"
 preserveAspectRatio="xMidYMid meet">
<metadata>
Created by potrace 1.11, written by Peter Selinger 2001-2013
</metadata>
<g transform="translate(0.000000,2000.000000) scale(0.100000,-0.100000)"
fill="#000000" stroke="none">
<path d="M9638 19845 c-3 -3 -83 -7 -179 -10 -96 -3 -208 -8 -249 -11 -41 -3
-109 -7 -151 -9 -41 -2 -95 -6 -120 -9 -24 -2 -73 -7 -109 -11 -58 -5 -108
-11 -190 -20 -14 -1 -54 -6 -90 -10 -35 -3 -67 -8 -70 -10 -3 -1 -30 -6 -61
-9 -31 -4 -65 -8 -75 -10 -11 -2 -41 -7 -69 -10 -27 -4 -108 -18 -180 -31 -71
-13 -143 -26 -159 -29 -29 -5 -108 -21 -156 -31 -14 -3 -56 -11 -95 -19 -100
-21 -492 -121 -610 -157 -146 -43 -549 -176 -625 -205 -36 -14 -112 -44 -170
-66 -58 -22 -114 -44 -125 -48 -11 -5 -49 -21 -85 -36 -36 -14 -83 -34 -105
-44 -22 -10 -67 -30 -100 -45 -169 -74 -550 -262 -690 -340 -162 -90 -225
-127 -360 -208 -186 -111 -528 -337 -690 -456 -181 -133 -500 -384 -610 -482
-286 -252 -317 -281 -555 -520 -213 -213 -248 -251 -365 -384 -39 -44 -72 -82
-75 -85 -3 -3 -35 -39 -70 -80 -35 -41 -66 -77 -69 -80 -3 -3 -19 -23 -36 -45
-16 -22 -32 -42 -35 -45 -16 -13 -229 -289 -359 -467 -88 -120 -401 -596 -401
-609 0 -3 -16 -30 -36 -62 -107 -167 -385 -694 -487 -922 -121 -272 -173 -398
-259 -625 -51 -135 -165 -466 -173 -500 -1 -5 -5 -17 -8 -25 -19 -49 -160
-566 -171 -625 -2 -11 -11 -54 -20 -95 -22 -97 -75 -356 -82 -395 -2 -16 -9
-55 -14 -85 -17 -102 -20 -120 -41 -258 -11 -75 -22 -157 -24 -182 -3 -25 -7
-63 -10 -85 -10 -74 -14 -110 -19 -175 -3 -36 -8 -85 -10 -110 -4 -43 -11
-127 -22 -290 -5 -84 -14 -418 -14 -555 0 -271 20 -681 44 -905 3 -25 8 -79
12 -120 3 -41 8 -84 10 -95 2 -11 6 -40 9 -65 9 -72 14 -110 25 -190 17 -113
20 -133 25 -160 7 -38 16 -92 20 -120 3 -22 47 -251 59 -306 14 -64 48 -221
52 -237 2 -9 6 -25 8 -35 2 -9 23 -89 46 -177 23 -88 43 -167 45 -175 5 -18
33 -113 74 -245 17 -55 33 -107 35 -115 15 -54 142 -410 177 -495 4 -11 22
-56 40 -100 17 -44 37 -93 44 -110 7 -16 25 -59 40 -95 15 -36 38 -87 50 -115
25 -53 57 -127 60 -135 0 -3 8 -19 18 -36 9 -17 13 -34 10 -38 -4 -3 -2 -6 4
-6 11 0 37 -57 34 -72 0 -5 4 -8 10 -8 7 0 9 -9 6 -21 -3 -12 -3 -18 1 -15 3
4 13 -7 22 -24 118 -233 156 -306 163 -311 5 -4 10 -18 10 -32 1 -14 5 -23 10
-20 4 2 13 -8 20 -24 7 -15 20 -40 31 -55 10 -16 16 -35 12 -43 -3 -8 -1 -14
5 -12 6 1 16 -7 22 -18 6 -11 19 -32 29 -47 10 -14 19 -32 20 -40 2 -7 6 -15
9 -18 20 -17 118 -194 113 -202 -4 -6 -2 -8 4 -5 5 4 23 -14 38 -40 16 -27 34
-57 41 -68 7 -11 15 -27 19 -35 4 -8 11 -17 15 -20 12 -8 89 -129 89 -140 0
-4 3 -10 8 -12 17 -7 82 -110 76 -120 -4 -6 -3 -8 3 -5 5 3 34 -28 63 -71 30
-42 73 -102 96 -133 24 -31 40 -60 36 -64 -4 -5 -2 -6 3 -2 6 3 26 -18 45 -48
19 -29 38 -51 42 -48 5 2 8 -1 8 -8 0 -10 19 -35 73 -99 12 -14 83 -102 100
-125 4 -5 19 -23 32 -38 14 -16 22 -33 19 -39 -4 -6 -3 -8 3 -5 6 4 28 -15 49
-41 22 -26 49 -57 61 -70 13 -13 23 -25 23 -27 0 -2 15 -19 33 -38 75 -81 92
-101 89 -111 -2 -6 0 -8 4 -4 9 10 64 -54 57 -67 -4 -5 -3 -7 2 -3 11 10 37
-11 29 -23 -3 -5 -1 -8 4 -7 14 4 73 -63 65 -75 -3 -5 -1 -7 5 -3 12 7 139
-120 135 -135 -2 -5 1 -8 5 -6 5 1 35 -24 68 -55 32 -31 82 -79 111 -106 29
-27 49 -53 45 -57 -4 -4 -2 -5 4 -3 15 4 164 -134 157 -146 -3 -5 -1 -6 4 -3
6 4 28 -10 50 -31 21 -20 72 -64 112 -97 40 -32 75 -65 78 -72 3 -7 10 -13 17
-13 6 0 25 -13 41 -28 17 -15 47 -40 67 -56 21 -16 35 -32 32 -37 -3 -5 -2 -9
3 -8 4 1 13 1 18 0 15 -2 75 -58 69 -65 -2 -3 -1 -4 2 -2 5 4 151 -97 164
-114 3 -3 26 -21 53 -39 26 -17 47 -36 47 -41 0 -6 3 -9 7 -8 12 4 103 -61
103 -73 0 -6 4 -8 9 -4 5 3 15 0 23 -7 16 -16 86 -65 173 -122 36 -23 62 -46
58 -49 -3 -4 1 -7 11 -7 9 0 50 -22 92 -50 41 -27 80 -50 85 -50 5 0 9 -4 9
-10 0 -5 6 -10 13 -10 7 0 22 -8 33 -18 10 -9 40 -28 66 -41 26 -13 55 -31 65
-40 10 -9 34 -24 53 -34 84 -43 128 -72 123 -80 -3 -6 -1 -7 5 -3 6 4 66 -24
134 -62 68 -38 204 -109 303 -158 99 -49 183 -93 186 -97 3 -5 8 -7 10 -6 7 6
89 -31 89 -39 0 -5 6 -9 13 -9 6 0 38 -12 70 -26 32 -15 62 -27 67 -27 6 0 10
-4 10 -10 0 -5 12 -10 26 -10 14 0 23 -4 20 -8 -2 -4 4 -8 14 -9 10 -1 37 -11
61 -22 23 -12 49 -21 56 -21 7 0 13 -4 13 -10 0 -5 3 -9 8 -8 15 4 91 -25 86
-33 -3 -5 1 -6 9 -3 8 3 18 1 22 -5 3 -6 13 -11 21 -11 8 0 34 -9 57 -19 24
-11 55 -23 70 -26 15 -4 24 -12 20 -18 -3 -5 -1 -7 5 -3 6 3 23 1 39 -5 28
-12 37 -15 61 -17 7 -1 10 -6 7 -12 -3 -6 1 -7 9 -4 8 3 30 -1 47 -10 18 -9
40 -16 51 -16 10 0 18 -5 18 -11 0 -6 6 -9 14 -6 7 3 17 2 22 -3 5 -5 20 -11
34 -13 14 -3 50 -15 80 -27 30 -12 57 -21 60 -21 3 1 32 -8 65 -18 33 -11 75
-23 93 -26 17 -4 32 -11 32 -16 0 -6 4 -8 9 -5 5 3 35 -3 67 -13 32 -11 61
-18 65 -15 4 2 12 -3 19 -11 6 -7 17 -12 24 -9 7 3 33 -2 57 -10 24 -8 61 -18
82 -21 20 -4 37 -11 37 -17 0 -5 4 -7 9 -4 12 8 111 -17 111 -27 0 -4 4 -6 9
-2 6 3 29 1 53 -5 24 -6 52 -13 63 -15 37 -8 60 -13 60 -15 0 -1 16 -3 35 -6
19 -2 42 -7 50 -10 8 -4 26 -8 40 -10 33 -5 65 -12 65 -14 0 -1 15 -3 33 -5
19 -2 41 -7 50 -11 10 -4 27 -6 40 -5 12 1 22 -2 22 -7 0 -4 14 -7 30 -4 19 3
30 0 30 -7 0 -7 4 -10 9 -7 16 11 101 -6 94 -18 -4 -6 0 -5 9 2 10 8 19 9 22
3 4 -5 15 -8 26 -6 11 2 20 1 20 -3 0 -4 26 -8 57 -9 32 -2 60 -8 65 -15 5 -8
8 -9 8 -2 0 8 13 9 38 4 38 -7 50 -9 55 -11 1 -1 20 -3 42 -4 22 -2 60 -6 85
-9 25 -3 79 -8 120 -12 41 -3 76 -9 78 -13 1 -4 27 -6 57 -4 30 1 55 -1 55 -5
0 -4 29 -6 65 -5 43 1 63 -2 59 -9 -4 -7 0 -6 13 1 11 6 22 8 25 6 2 -3 67 -7
144 -11 155 -6 169 -8 158 -26 -5 -8 -1 -7 10 2 23 18 46 22 46 7 0 -8 3 -8 8
-2 10 14 32 17 32 5 0 -7 6 -7 20 0 14 8 20 8 20 0 0 -6 5 -8 11 -4 7 4 30 6
53 6 83 -2 271 -3 276 -2 23 6 150 3 150 -3 0 -5 6 -5 12 -1 20 12 52 12 60 0
5 -7 8 -7 8 -1 0 17 171 19 181 3 7 -10 9 -9 9 3 0 12 11 15 48 15 26 1 85 4
132 9 47 4 115 8 152 9 38 0 68 5 68 10 0 5 10 1 22 -10 19 -15 20 -16 9 -1
-12 16 -10 17 30 18 24 0 53 2 64 4 11 3 44 7 74 10 42 5 52 4 45 -7 -4 -7 2
-5 13 5 11 9 22 15 25 12 3 -3 17 -1 32 4 18 8 26 7 26 0 0 -8 4 -8 13 -1 7 6
38 13 69 16 32 2 63 8 69 12 8 5 9 3 4 -7 -8 -12 -6 -12 8 0 9 7 24 11 32 7 8
-3 15 -2 15 3 0 4 14 7 30 6 17 -1 30 1 30 5 0 4 6 7 13 7 6 0 32 4 57 8 25 4
64 8 87 9 22 0 38 5 35 10 -3 5 2 7 11 3 9 -3 19 -1 23 5 4 7 9 6 15 -3 5 -8
9 -9 9 -3 0 6 17 14 38 17 52 8 80 15 92 22 6 3 10 0 10 -7 0 -10 2 -10 9 1 5
8 28 14 54 15 25 0 42 5 39 10 -3 5 5 7 16 4 12 -4 25 -2 28 3 8 13 48 11 64
-4 12 -10 12 -9 2 4 -11 14 -9 17 12 21 14 3 30 0 36 -6 8 -8 11 -7 8 4 -2 11
6 15 34 15 20 0 34 3 31 7 -4 7 32 12 40 6 2 -2 11 3 20 11 9 7 24 11 32 7 8
-3 15 -2 15 3 0 5 17 12 38 17 54 11 56 11 70 1 9 -7 11 -6 7 5 -5 12 8 18 57
28 35 7 87 22 117 32 29 10 57 15 62 12 5 -3 9 0 9 7 0 6 8 9 20 6 10 -3 21 0
23 6 2 6 19 11 39 11 20 1 36 6 35 11 -1 6 10 10 25 9 15 0 25 4 22 8 -4 7 20
12 29 6 1 -1 11 4 23 10 16 8 24 8 33 -1 10 -9 12 -9 9 2 -4 18 97 52 112 37
8 -8 11 -7 8 4 -2 10 4 15 19 14 12 0 20 3 18 7 -5 7 34 20 46 16 3 -1 13 4
22 11 9 8 20 11 26 8 5 -3 11 -1 13 4 2 6 13 12 26 13 12 0 22 5 22 10 0 5 8
3 17 -4 12 -10 15 -10 9 -1 -7 12 32 34 47 25 4 -2 7 1 7 6 0 6 7 11 15 11 8
0 35 9 60 21 24 11 48 18 54 15 5 -3 11 -1 13 4 2 6 11 12 20 13 9 2 22 8 29
14 22 17 88 35 100 27 7 -4 9 -3 6 3 -8 13 20 26 35 16 7 -3 8 -1 4 5 -4 7 -1
12 7 12 7 0 33 10 57 21 24 12 49 22 54 23 6 1 21 8 34 14 12 7 28 10 34 6 6
-4 8 -3 4 4 -10 17 33 25 52 10 15 -11 16 -11 4 3 -12 16 -4 25 28 34 3 0 20
9 38 18 17 10 32 14 32 10 0 -5 4 -3 8 3 4 6 36 24 72 39 36 16 73 35 83 44
16 13 21 13 40 1 19 -12 20 -11 10 2 -11 12 -6 18 32 37 25 12 49 19 55 16 6
-4 9 -1 8 7 -2 7 4 13 12 13 8 0 14 -6 13 -12 -2 -7 1 -13 7 -13 5 0 9 10 7
23 -2 18 3 22 24 22 18 -1 25 4 22 12 -5 12 2 15 23 12 4 0 10 3 13 8 11 17
92 53 103 47 6 -4 8 -2 4 4 -3 6 14 20 41 34 27 13 54 29 61 36 8 7 17 10 22
7 5 -3 10 1 13 7 3 10 8 10 23 -2 17 -14 18 -13 6 1 -11 14 -8 18 18 29 16 7
30 17 30 22 0 6 7 7 16 4 8 -3 12 -2 9 4 -5 9 16 15 38 11 5 -1 6 3 2 9 -3 5
7 15 22 22 15 7 30 15 33 18 3 3 15 11 28 18 19 11 27 11 40 0 15 -11 15 -11
4 4 -9 11 -10 18 -2 23 5 3 10 4 10 1 0 -3 9 3 21 15 11 11 27 18 35 15 7 -3
13 -2 13 2 -3 19 2 23 16 12 13 -11 14 -10 10 2 -4 10 6 22 30 37 41 24 49 26
39 9 -4 -7 -3 -8 5 -4 6 4 9 11 6 16 -3 4 24 26 58 49 66 43 83 50 71 29 -4
-8 -3 -10 2 -5 5 5 9 14 9 20 0 6 10 17 23 23 13 6 34 21 47 32 13 11 26 18
29 15 3 -4 6 -1 6 5 0 7 7 12 15 12 9 0 18 7 21 15 4 8 10 12 15 9 5 -3 9 -1
9 5 0 14 55 42 65 33 5 -4 5 -2 2 4 -4 7 0 17 8 24 12 10 19 10 33 -1 15 -13
16 -12 4 3 -9 11 -10 18 -2 23 5 3 10 3 10 -2 0 -4 7 3 16 15 14 21 42 33 29
13 -3 -5 -1 -12 4 -15 5 -4 8 2 6 11 -4 29 14 46 33 31 13 -10 14 -10 8 0 -4
7 0 19 8 28 9 8 16 12 16 7 0 -4 6 -1 13 7 27 34 108 91 118 84 7 -4 9 -3 6 4
-10 14 71 72 92 65 12 -4 13 -3 3 4 -10 8 -4 17 25 39 21 15 43 33 49 39 6 5
25 21 43 35 19 14 41 33 49 43 9 9 22 17 28 17 7 0 15 7 18 16 3 9 13 14 21
11 9 -4 12 -1 8 8 -3 9 3 18 13 22 11 4 24 13 30 21 6 8 16 12 21 9 6 -4 10 1
9 10 0 9 5 18 13 21 9 3 11 0 6 -9 -5 -8 -4 -11 1 -6 5 5 9 13 9 17 0 9 27 36
156 150 40 36 90 82 111 103 22 21 44 34 51 31 7 -4 9 -4 5 1 -8 9 11 50 19
41 3 -3 14 6 25 19 11 14 25 22 31 18 7 -3 9 -2 4 2 -9 10 183 206 195 199 5
-3 7 -2 6 3 -5 16 41 65 53 57 8 -4 9 -3 5 4 -4 6 21 40 59 79 36 37 65 71 65
76 0 4 6 7 14 7 8 0 18 5 22 12 5 7 2 9 -7 4 -8 -4 1 6 19 23 18 17 30 31 27
31 -3 0 14 21 39 46 25 25 62 68 81 94 20 27 39 50 43 52 4 2 22 22 41 46 26
33 36 40 43 30 7 -9 8 -8 4 6 -7 21 11 49 27 39 5 -3 7 -1 4 4 -4 6 7 25 23
43 17 18 30 36 30 41 0 5 4 9 9 9 5 0 13 9 16 20 3 11 13 20 21 20 8 0 13 3
13 8 -3 19 2 33 11 27 6 -3 10 0 10 8 0 8 7 18 16 21 9 4 14 9 11 12 -7 8 17
34 31 34 5 0 9 8 8 17 0 9 10 23 24 30 14 7 18 13 10 13 -9 0 -11 3 -5 8 6 4
22 23 35 42 33 48 46 60 55 52 5 -4 5 -1 0 7 -4 7 -4 16 1 20 5 3 29 35 53 71
25 36 48 67 52 70 3 3 14 20 23 38 9 17 21 32 26 32 6 0 10 6 10 14 0 7 11 25
24 39 13 14 22 27 20 29 -2 2 11 20 28 39 17 19 30 34 28 34 -2 0 7 19 20 43
13 23 27 42 32 42 4 0 8 5 8 11 0 15 46 80 52 73 3 -3 5 3 4 13 0 10 5 17 12
15 8 -1 11 2 8 7 -8 13 29 73 38 63 4 -4 6 2 4 13 -2 12 2 19 9 18 7 -2 10 3
7 10 -2 7 6 25 19 39 13 13 21 30 19 36 -2 7 1 12 7 12 6 0 11 7 11 15 0 8 5
15 12 15 6 0 8 3 5 6 -4 4 2 19 12 33 10 14 35 59 56 98 21 40 42 70 46 67 5
-3 6 1 4 8 -3 8 2 22 11 33 8 11 12 14 8 6 -5 -9 -3 -12 5 -7 6 4 9 12 5 18
-7 11 26 78 38 78 5 0 8 5 8 12 0 18 53 117 60 113 4 -2 6 6 6 18 -1 12 4 22
11 22 6 0 15 4 20 9 5 5 3 6 -4 2 -16 -9 -17 6 -1 22 7 7 8 12 2 12 -5 0 -5 3
1 8 6 4 28 44 50 89 21 45 44 79 49 76 5 -3 6 -1 2 6 -4 6 3 33 16 59 12 26
23 52 23 57 1 6 7 9 14 7 7 -1 10 2 7 7 -8 12 14 72 24 66 5 -3 12 0 16 6 4 8
3 9 -4 5 -17 -10 -15 -4 16 66 16 35 39 90 52 123 30 74 46 106 51 101 2 -2 5
10 6 27 1 17 7 34 14 37 6 4 10 9 9 11 -1 2 3 17 9 32 6 16 11 31 11 34 0 3 8
12 18 20 9 8 11 11 3 7 -16 -8 -12 7 39 133 20 51 41 90 46 85 4 -4 3 0 -4 9
-8 10 -8 19 -2 25 6 6 12 19 15 30 2 10 22 70 43 132 28 84 41 110 50 102 9
-7 9 -7 2 2 -14 17 -13 41 2 32 7 -4 8 -3 4 5 -4 6 2 44 14 84 12 40 23 77 24
82 2 12 25 84 33 105 3 8 8 26 10 40 2 14 8 26 13 28 5 2 7 9 4 16 -3 7 0 26
7 42 6 16 13 40 15 53 2 13 6 31 10 40 4 9 8 23 9 31 5 44 18 90 27 90 5 0 7
4 4 9 -8 13 15 111 26 111 5 0 6 5 3 11 -11 17 4 61 18 52 9 -5 9 -4 0 8 -14
17 -1 81 21 108 9 12 8 13 -2 7 -11 -7 -12 -4 -5 10 5 11 9 26 8 34 -1 8 3 26
8 40 8 22 13 50 16 98 1 7 5 10 11 7 5 -3 7 0 4 8 -3 8 -1 41 5 73 6 33 13 77
16 99 3 22 8 46 10 53 3 7 7 40 11 75 4 34 10 63 13 65 4 1 6 18 5 38 -2 19 0
33 4 30 4 -2 6 13 6 35 -1 23 3 39 9 39 8 0 8 3 0 11 -7 7 -8 20 -4 33 9 22
18 92 27 206 3 36 11 68 17 72 9 6 9 8 0 8 -7 0 -10 9 -7 23 3 12 7 60 10 107
3 49 10 88 17 92 9 6 8 8 -2 8 -11 0 -11 3 0 17 12 14 12 15 1 9 -11 -7 -12
-4 -3 13 7 11 8 21 3 21 -10 0 -3 71 9 86 5 6 6 14 2 17 -11 12 -2 151 10 159
9 6 9 8 0 8 -7 0 -13 7 -13 15 0 8 6 15 13 15 8 0 8 3 2 8 -13 9 -14 62 -1 62
5 0 3 7 -4 15 -7 8 -8 15 -3 15 5 0 9 9 9 20 0 11 -4 20 -9 20 -5 0 -5 6 1 13
6 7 7 18 3 25 -4 6 -6 27 -4 44 3 29 4 106 2 262 0 26 2 51 5 53 3 3 1 14 -5
24 -7 13 -6 19 1 19 7 0 7 7 -1 21 -8 16 -8 20 1 14 9 -6 9 -2 1 14 -9 16 -9
21 1 21 10 0 10 2 0 9 -8 4 -14 12 -14 16 0 4 6 12 14 16 7 5 8 9 2 9 -15 0
-16 60 -1 60 8 0 8 3 -1 9 -10 6 -13 27 -10 74 1 36 0 63 -5 60 -4 -2 -6 6 -4
18 2 12 1 40 -3 61 -4 21 -3 41 1 44 5 3 6 11 2 17 -4 7 -9 23 -11 35 -2 17 1
22 10 16 10 -6 11 -5 1 7 -6 8 -12 28 -13 44 -3 101 -6 135 -11 135 -3 0 -5
12 -6 28 0 15 -3 52 -7 82 -4 30 -9 82 -12 115 -6 72 -11 102 -18 114 -4 5 -1
13 5 17 8 5 8 8 0 13 -6 4 -13 34 -15 67 -3 32 -5 59 -6 59 -1 0 -3 9 -5 20
-7 37 -17 100 -21 130 -2 17 -7 46 -10 65 -6 37 -4 47 9 42 5 -1 6 2 2 8 -3 6
-10 8 -14 5 -5 -2 -11 12 -14 33 -3 20 -8 46 -10 57 -3 11 -14 70 -26 130 -11
61 -24 121 -27 135 -15 66 -22 105 -18 112 2 3 0 8 -5 10 -5 1 -12 19 -15 39
-3 20 -8 44 -12 53 -4 11 -1 22 7 27 11 7 10 9 -5 9 -13 0 -16 5 -12 17 4 9 2
19 -4 23 -5 3 -11 23 -12 43 -2 20 -7 37 -12 37 -4 0 -6 9 -3 20 3 11 1 20 -3
20 -12 0 -33 97 -24 111 4 7 3 9 -3 6 -12 -8 -27 38 -18 53 4 6 2 10 -3 10 -8
0 -36 91 -36 120 0 8 -3 17 -6 20 -11 11 -37 96 -34 113 1 11 0 16 -3 13 -9
-8 -84 226 -78 242 3 7 1 11 -4 8 -11 -7 -43 93 -34 108 3 6 2 8 -2 3 -7 -6
-41 68 -59 128 -2 6 -6 18 -10 27 -4 9 -4 22 0 29 4 8 3 9 -5 5 -7 -5 -13 3
-17 24 -4 17 -11 33 -15 36 -5 3 -9 12 -9 20 0 8 -10 36 -21 62 -12 26 -27 61
-34 77 -58 135 -73 175 -67 175 4 0 1 4 -6 9 -7 4 -14 14 -15 22 -2 8 -13 34
-25 58 -13 24 -21 50 -18 58 3 7 -1 16 -8 19 -14 5 -41 60 -37 77 0 4 -3 7 -8
7 -8 0 -41 77 -40 94 0 5 -4 12 -9 15 -15 9 -82 148 -75 155 4 3 2 6 -4 6 -6
0 -16 15 -24 33 -7 17 -16 34 -20 37 -4 3 -9 12 -11 20 -2 8 -9 21 -16 28 -7
8 -10 24 -7 36 4 13 3 17 -2 9 -6 -9 -20 8 -44 55 -19 37 -33 72 -33 79 1 7
-2 11 -6 10 -4 -1 -8 2 -8 7 0 5 -4 12 -9 15 -18 12 -63 103 -56 114 3 5 1 7
-5 3 -6 -3 -16 7 -24 24 -7 16 -17 30 -22 30 -4 0 -5 7 -2 16 4 10 2 13 -6 8
-8 -5 -9 -2 -5 10 4 9 3 15 -1 12 -9 -5 -92 130 -92 151 0 8 -4 11 -10 8 -5
-3 -10 -1 -10 5 0 7 -10 26 -22 43 -31 42 -46 69 -54 90 -3 9 -9 17 -13 17
-10 0 -41 56 -36 64 3 3 2 4 -1 1 -8 -6 -74 85 -74 102 0 7 -4 13 -8 13 -5 0
-15 12 -23 28 -8 15 -17 29 -20 32 -23 20 -97 135 -92 144 3 6 3 8 -2 4 -9 -9
-61 62 -56 77 1 6 -1 7 -5 3 -4 -5 -19 9 -32 30 -14 20 -28 39 -31 42 -4 3
-33 41 -66 85 -33 44 -64 85 -70 92 -33 39 -60 78 -57 86 1 5 -1 6 -6 3 -8 -5
-45 37 -51 56 -1 4 -21 27 -44 51 -23 24 -60 66 -82 93 -22 27 -72 85 -112
130 -40 45 -70 84 -68 88 3 3 2 4 -1 1 -11 -7 -36 24 -28 36 4 7 3 9 -3 6 -10
-7 -153 137 -153 154 0 5 -5 9 -10 9 -13 0 -86 81 -82 92 1 4 -2 7 -6 6 -8 -3
-61 41 -91 76 -9 10 -28 30 -43 44 -15 14 -25 29 -21 35 3 6 1 7 -4 4 -6 -4
-33 14 -60 41 -27 26 -68 64 -91 85 -25 21 -40 42 -36 49 4 6 3 8 -3 5 -6 -4
-24 5 -41 21 -54 49 -156 140 -191 169 -19 15 -49 42 -67 60 -19 17 -34 29
-34 26 0 -2 -6 2 -13 9 -8 7 -33 29 -57 48 -24 19 -52 43 -62 53 -10 9 -22 17
-27 17 -5 0 -11 4 -13 8 -2 4 -23 23 -48 42 -25 19 -47 37 -50 40 -3 3 -21 17
-40 30 -19 13 -40 29 -46 35 -17 16 -150 115 -194 145 -13 8 -35 24 -49 35
-33 26 -99 70 -315 212 -94 62 -176 117 -183 122 -7 6 -14 11 -17 11 -3 0 -56
31 -118 69 -62 37 -153 91 -203 118 -49 28 -110 62 -135 76 -25 13 -91 48
-147 78 -56 29 -99 57 -96 62 3 6 1 7 -6 3 -6 -4 -23 0 -36 8 -14 9 -25 14
-25 11 0 -2 -15 4 -34 14 -56 32 -69 38 -138 70 -37 17 -72 31 -77 31 -6 0
-11 5 -11 10 0 6 -5 10 -11 10 -6 0 -66 24 -133 54 -66 29 -184 79 -261 110
-77 31 -149 61 -160 65 -50 21 -128 51 -135 51 -4 0 -25 8 -46 17 -22 9 -45
18 -52 19 -7 1 -63 20 -125 42 -61 21 -146 50 -187 62 -41 13 -79 26 -85 29
-5 3 -19 7 -30 8 -19 3 -142 38 -175 51 -21 7 -32 10 -60 16 -14 3 -56 15 -95
26 -38 12 -79 23 -90 25 -11 3 -69 16 -130 31 -60 14 -119 28 -130 30 -11 2
-41 8 -66 14 -60 15 -80 18 -102 19 -11 1 -15 6 -11 13 4 7 3 8 -4 4 -7 -4
-51 0 -100 9 -48 9 -98 19 -112 21 -14 3 -47 9 -75 14 -27 5 -68 12 -90 15
-22 3 -65 10 -95 15 -30 5 -77 12 -105 15 -27 3 -63 8 -80 10 -16 3 -50 7 -75
10 -25 3 -61 7 -80 10 -46 6 -135 15 -185 20 -22 2 -70 6 -107 10 -109 10
-416 28 -505 29 -18 0 -33 4 -33 9 0 4 -5 5 -12 1 -13 -8 -374 -8 -387 1 -5 2
-10 2 -13 0z"/>
<path d="M19389 10123 c-13 -16 -12 -17 4 -4 9 7 17 15 17 17 0 8 -8 3 -21
-13z"/>
<path d="M18954 7388 l-19 -23 23 19 c21 18 27 26 19 26 -2 0 -12 -10 -23 -22z"/>
<path d="M18774 6896 c1 -8 5 -18 8 -22 4 -3 5 1 4 10 -1 8 -5 18 -8 22 -4 3
-5 -1 -4 -10z"/>
<path d="M18576 6382 c-3 -5 1 -9 9 -9 8 0 12 4 9 9 -3 4 -7 8 -9 8 -2 0 -6
-4 -9 -8z"/>
<path d="M18510 6201 c0 -6 4 -13 10 -16 6 -3 7 1 4 9 -7 18 -14 21 -14 7z"/>
<path d="M17570 4626 c0 -2 7 -7 16 -10 8 -3 12 -2 9 4 -6 10 -25 14 -25 6z"/>
<path d="M16909 3803 c-13 -16 -12 -17 4 -4 16 13 21 21 13 21 -2 0 -10 -8
-17 -17z"/>
<path d="M16786 3678 c3 -5 10 -6 15 -3 13 9 11 12 -6 12 -8 0 -12 -4 -9 -9z"/>
<path d="M16356 3227 c3 -10 9 -15 12 -12 3 3 0 11 -7 18 -10 9 -11 8 -5 -6z"/>
<path d="M16295 3180 c3 -5 8 -10 11 -10 2 0 4 5 4 10 0 6 -5 10 -11 10 -5 0
-7 -4 -4 -10z"/>
<path d="M16013 2915 c0 -8 4 -12 9 -9 5 3 6 10 3 15 -9 13 -12 11 -12 -6z"/>
<path d="M15116 2238 c3 -5 10 -6 15 -3 13 9 11 12 -6 12 -8 0 -12 -4 -9 -9z"/>
<path d="M14895 2101 c-3 -5 -2 -12 3 -15 5 -3 9 1 9 9 0 17 -3 19 -12 6z"/>
<path d="M14656 1958 c3 -5 10 -6 15 -3 13 9 11 12 -6 12 -8 0 -12 -4 -9 -9z"/>
<path d="M9127 639 c7 -7 15 -10 18 -7 3 3 -2 9 -12 12 -14 6 -15 5 -6 -5z"/>
<path d="M10415 640 c-3 -5 -1 -10 4 -10 6 0 11 5 11 10 0 6 -2 10 -4 10 -3 0
-8 -4 -11 -10z"/>
</g>
</svg>
